<?xml version="1.0" encoding="utf-8"?>
<!-- Generator: Adobe Illustrator 27.9.0, SVG Export Plug-In . SVG Version: 6.00 Build 0)  -->
<svg version="1.1" id="logo" xmlns="http://www.w3.org/2000/svg" xmlns:xlink="http://www.w3.org/1999/xlink" x="0px" y="0px"
	 viewBox="0 0 142 48" style="enable-background:new 0 0 142 48;" xml:space="preserve">
<style type="text/css">
	.st0{fill:#426DA9;}
	.st1{fill:#6D2077;}
	.st2{fill:#AF1685;}
	.st3{fill:#E63888;}
	.st4{fill:#1D4F91;}
</style>
<g>
	<path class="st0" d="M23.3211,11.8235h-5.2129c-1.5514,0-2.8059-1.2566-2.8059-2.8057V3.8045C15.3024,2.2566,16.5569,1,18.1083,1
		h5.2129c1.5493,0,2.8047,1.2566,2.8047,2.8045v5.2133C26.1259,10.5669,24.8704,11.8235,23.3211,11.8235"/>
	<path class="st1" d="M9.8355,23.5091H3.971c-1.7423,0-3.1558-1.4095-3.1558-3.1548v-5.8661c0-1.7414,1.4135-3.1555,3.1558-3.1555
		h5.8645c1.7432,0,3.1562,1.4141,3.1562,3.1555v5.8661C12.9917,22.0996,11.5787,23.5091,9.8355,23.5091"/>
	<path class="st2" d="M9.2771,35.6818H5.6954c-1.0648,0-1.9301-0.8621-1.9301-1.929v-3.5803c0-1.0683,0.8653-1.9318,1.9301-1.9318
		h3.5817c1.0653,0,1.9292,0.8635,1.9292,1.9318v3.5803C11.2063,34.8197,10.3424,35.6818,9.2771,35.6818"/>
	<path class="st3" d="M18.8944,47h-4.2352c-1.2589,0-2.2795-1.018-2.2795-2.279v-4.2357c0-1.261,1.0205-2.2795,2.2795-2.2795h4.2352
		c1.2589,0,2.2794,1.0184,2.2794,2.2795v4.2357C21.1738,45.982,20.1533,47,18.8944,47"/>
	<path class="st3" d="M34.4152,13.9564h-2.9344c-0.8718,0-1.578-0.7082-1.578-1.5773V9.4483c0-0.8719,0.7061-1.5801,1.578-1.5801
		h2.9344c0.8711,0,1.5759,0.7082,1.5759,1.5801v2.9308C35.9911,13.2481,35.2864,13.9564,34.4152,13.9564"/>
	<path class="st4" d="M98.6288,15.9149c0.9327,0,1.6877-0.7551,1.6877-1.6901c0-0.9336-0.7551-1.6924-1.6877-1.6924
		c-0.9331,0-1.6947,0.7588-1.6947,1.6924C96.934,15.1599,97.6956,15.9149,98.6288,15.9149z"/>
	<path class="st4" d="M36.9028,33.953c-0.2615,0.3924-0.6866,0.5882-1.1443,0.5882c-0.261,0-0.5556-0.0652-0.7844-0.1958
		c-0.3593-0.2293-0.6213-0.7192-0.6213-1.2095c0-0.2293,0.0657-0.4582,0.1963-0.6539l3.9231-6.1777l-3.9231-6.1779
		c-0.1305-0.1962-0.1963-0.4577-0.1963-0.687c0-0.4572,0.2293-0.9476,0.6544-1.1769c0.2284-0.1305,0.4577-0.1958,0.7187-0.1958
		c0.4577,0,0.9154,0.1958,1.1769,0.5887l3.2035,5.0663l3.2357-5.0663c0.2619-0.3929,0.7197-0.5887,1.1774-0.5887
		c0.2615,0,0.4904,0.0652,0.7187,0.1958c0.4251,0.2293,0.6535,0.7197,0.6535,1.1769c0,0.2293-0.0652,0.4908-0.1957,0.687
		l-3.9227,6.1779l3.9227,6.1777c0.1305,0.1957,0.1957,0.4246,0.1957,0.6539c0,0.4903-0.261,0.9802-0.6209,1.2095
		c-0.2284,0.1305-0.523,0.1958-0.7844,0.1958c-0.4572,0-0.8824-0.1958-1.1443-0.5882l-3.2357-5.0339L36.9028,33.953z
		 M50.8876,19.9954c1.471-1.34,3.465-2.1571,5.6226-2.1571c4.7076,0,8.4667,3.7593,8.4667,8.466c0,4.6424-3.7591,8.401-8.4667,8.401
		c-2.1576,0-4.1516-0.8175-5.6226-2.1576v7.2241c0,0.7192-0.6535,1.34-1.4048,1.34c-0.687,0-1.3731-0.6209-1.3731-1.34V19.3089
		c0-0.7187,0.6861-1.3401,1.3731-1.3401c0.7513,0,1.4048,0.6213,1.4048,1.3401V19.9954z M56.5102,20.65
		c-3.1382,0-5.6226,2.4834-5.6226,5.6543c0,3.1382,2.4843,5.6221,5.6226,5.6221c3.1713,0,5.6547-2.4838,5.6547-5.6221
		C62.1649,23.1334,59.6815,20.65,56.5102,20.65z M88.9087,24.768v8.4658c0,0.7192-0.687,1.3401-1.3731,1.3401
		c-0.7523,0-1.4058-0.6209-1.4058-1.3401V19.3089c0-0.7192,0.6535-1.3401,1.4058-1.3401c0.6544,0,1.3395,0.5883,1.3731,1.2748
		c1.1438-0.8823,2.6148-1.3731,4.2163-1.4053c0.8828,0,1.5358,0.6861,1.5358,1.3727c0,0.7513-0.6856,1.4382-1.5358,1.4382
		C90.9353,20.7144,88.9087,21.4993,88.9087,24.768z M98.6483,17.9688c-0.7513,0-1.4048,0.6209-1.4048,1.3401v13.9249
		c0,0.7192,0.6535,1.3401,1.4048,1.3401c0.687,0,1.3731-0.6209,1.3731-1.3401V19.3089
		C100.0214,18.5896,99.3353,17.9688,98.6483,17.9688z M116.3992,19.3089c0-0.7192,0.6525-1.3401,1.4048-1.3401
		c0.6866,0,1.3731,0.6209,1.3731,1.3401v13.9249c0,0.7192-0.6866,1.3401-1.3731,1.3401c-0.7523,0-1.4048-0.6209-1.4048-1.3401
		v-0.6865c-1.5036,1.34-3.4659,2.1571-5.624,2.1571c-4.7067,0-8.4658-3.7581-8.4658-8.4653c0-4.6414,3.7591-8.4007,8.4658-8.4007
		c2.1581,0,4.1203,0.8171,5.624,2.1576V19.3089z M110.7753,31.8937c3.1383,0,5.624-2.4843,5.624-5.6547
		c0-3.1382-2.4857-5.6221-5.624-5.6221c-3.1704,0-5.6538,2.4838-5.6538,5.6221C105.1215,29.4095,107.6049,31.8937,110.7753,31.8937z
		 M133.3307,24.9311c0-2.3202-2.0266-4.3473-4.3478-4.3473c-2.2555,0-4.3478,0.9154-4.3478,4.1842v8.4658
		c0,0.7192-0.6861,1.3401-1.3731,1.3401c-0.7523,0-1.4049-0.6209-1.4049-1.3401V19.3089c0-0.7192,0.6525-1.3401,1.4049-1.3401
		c0.6539,0,1.3405,0.5883,1.3731,1.2748c1.1774-0.9159,2.681-1.4053,4.3142-1.4053c3.7922,0,7.1593,2.9749,7.1593,6.7004v8.695
		c0,0.7192-0.6852,1.3401-1.3722,1.3401c-0.7523,0-1.4057-0.6209-1.4057-1.3401V24.9311z M33.58,25.7818
		c-0.0652-4.2825-3.8891-7.9435-8.4003-7.9435c-4.7076,0-8.4662,3.7593-8.4662,8.4007c0,4.7071,3.7586,8.4653,8.4662,8.4653
		c2.2552,0,4.348-0.8823,5.8512-2.3855c0.2941-0.2615,0.4903-0.654,0.4903-1.0464c0-0.7513-0.6539-1.4053-1.4057-1.4053
		c-0.4246,0-0.8171,0.2615-1.1112,0.5561c-0.9485,1.0128-2.3536,1.4705-3.8246,1.4705c-2.8106,0-5.0973-1.9264-5.5894-4.6058
		h12.6175c0.0093,0,0.0177-0.0032,0.027-0.0032h0.0382c0.0233-0.0023,0.0466-0.0103,0.0704-0.014
		c0.0484-0.007,0.0965-0.014,0.1431-0.028C33.0822,27.0825,33.58,26.5126,33.58,25.7818z M25.1797,20.617
		c2.5349,0,4.6407,1.6267,5.3594,3.8933H19.7869C20.5056,22.2436,22.6143,20.617,25.1797,20.617z M83.7779,25.7818
		c-0.0661-4.2825-3.8905-7.9435-8.4009-7.9435c-4.7076,0-8.4681,3.7593-8.4681,8.4007c0,4.7071,3.7605,8.4653,8.4681,8.4653
		c2.255,0,4.3473-0.8823,5.8505-2.3855c0.2946-0.2615,0.4903-0.654,0.4903-1.0464c0-0.7513-0.6535-1.4053-1.4048-1.4053
		c-0.4256,0-0.8185,0.2615-1.1121,0.5561c-0.948,1.0128-2.3538,1.4705-3.8239,1.4705c-2.8106,0-5.0982-1.9264-5.59-4.6058h12.5963
		c0.0084,0,0.0178-0.0032,0.0261-0.0032h0.0601c0.0378-0.0032,0.0746-0.0149,0.1119-0.0224
		c0.0191-0.0042,0.0387-0.0056,0.0573-0.0112C83.254,27.109,83.7779,26.5303,83.7779,25.7818z M75.3769,20.617
		c2.5341,0,4.6409,1.6267,5.3601,3.8933H69.9832C70.7019,22.2436,72.8106,20.617,75.3769,20.617z M139.6146,31.5717
		c-0.8489,0-1.5662,0.6955-1.5662,1.5185c0,0.823,0.7174,1.5185,1.5662,1.5185c0.8657,0,1.5701-0.6812,1.5701-1.5185
		C141.1847,32.2529,140.4803,31.5717,139.6146,31.5717z M140.91,33.0902c0,0.6765-0.5812,1.2267-1.2954,1.2267
		c-0.699,0-1.2676-0.5503-1.2676-1.2267c0-0.6763,0.5686-1.2265,1.2676-1.2265C140.3288,31.8637,140.91,32.414,140.91,33.0902z
		 M139.8701,33.2327c0.1702-0.1033,0.2708-0.2859,0.2708-0.4951c0-0.3172-0.2415-0.5563-0.562-0.5563h-0.2262
		c-0.1233,0-0.2129,0.0969-0.2129,0.2303v1.4263c0,0.0826,0.0704,0.1499,0.1573,0.1499c0.0873,0,0.153-0.0644,0.153-0.1499V33.309
		h0.1174l0.279,0.5955c0.0231,0.0507,0.0751,0.0834,0.1331,0.0834c0.0246,0,0.0513-0.0061,0.0701-0.0151
		c0.0552-0.0215,0.0912-0.073,0.0912-0.1309c0-0.0182,0-0.0387-0.0125-0.0638L139.8701,33.2327z M139.8302,32.7376
		c0,0.0027-0.0027,0.2681-0.2473,0.2681h-0.1327v-0.5248h0.1327C139.8275,32.4809,139.8302,32.727,139.8302,32.7376z"/>
</g>
</svg>
